<svg width="20" height="20" viewBox="0 0 20 20" fill="none" xmlns="http://www.w3.org/2000/svg">
<path d="M9.07771 9.00065C9.07771 8.3382 9.22222 7.71196 9.47749 7.15588C9.36984 7.1501 9.82268 7.15195 2.86597 7.15195C1.30938 7.15195 0.0220914 8.52774 0.0141858 10.2349L0 13.3012C1.10139 13.3012 1.32297 13.3012 2.41018 13.3012L2.42429 10.2482C2.42503 10.0969 2.53814 9.97505 2.67719 9.97545C2.81624 9.97594 2.92869 10.0984 2.92869 10.2495V13.3012H6.3072C7.03533 12.0365 8.28729 11.2424 9.64994 11.1814C9.28007 10.5342 9.07771 9.78737 9.07771 9.00065Z" fill="white"/>
<path d="M6.09751 0.306549C4.71824 0.306549 3.6 1.52146 3.6 3.02016C3.6 4.51203 4.71166 5.73376 6.09751 5.73376C7.46702 5.73376 8.59509 4.5284 8.59509 3.02016C8.59509 1.52138 7.47685 0.306549 6.09751 0.306549Z" fill="white"/>
<path d="M19.3376 19.2395L19.3173 16.1019C19.3095 14.4087 18.0361 13.0189 16.4656 13.0189C14.6522 13.0189 12.0477 13.0189 10.148 13.0189C8.58341 13.0189 7.22209 14.4018 7.21419 16.1019L7.2 19.2396H9.61018L9.62429 16.115C9.62488 15.9848 9.72233 15.8798 9.8421 15.8801C9.96186 15.8805 10.0587 15.9861 10.0587 16.1162V19.2397C11.4715 19.2397 15.1185 19.2397 16.4417 19.2397V16.1162C16.4417 15.9769 16.5455 15.8639 16.6738 15.8635C16.802 15.8631 16.9065 15.9756 16.9071 16.115L16.9212 19.2396L19.3376 19.2395Z" fill="white"/>
<path d="M12.4267 11.6644C13.8221 11.6644 14.9534 10.4353 14.9534 8.91911C14.9534 7.40291 13.8221 6.17379 12.4267 6.17379C11.0312 6.17379 9.9 7.40291 9.9 8.91911C9.9 10.4353 11.0312 11.6644 12.4267 11.6644Z" fill="white"/>
</svg>
