<svg width="20" height="20" viewBox="0 0 20 20" fill="none" xmlns="http://www.w3.org/2000/svg">
<path d="M19.5032 9.29484L10.2624 0.416669C10.0308 0.194037 9.68699 0.194037 9.45536 0.416669L6.16072 3.58003V2.29883C6.16072 1.54484 5.60874 0.93297 4.92864 0.93297C4.24854 0.93297 3.69651 1.54488 3.69651 2.29883V5.94708L0.21211 9.29484C-0.0441639 9.54205 -0.0724946 9.9737 0.150504 10.2591C0.374759 10.5432 0.762878 10.5733 1.02037 10.3274L9.85706 1.83716L18.6925 10.3274C18.8108 10.4395 18.9525 10.4941 19.0966 10.4941C19.2703 10.4941 19.4391 10.4135 19.5611 10.2591C19.7878 9.9737 19.7582 9.54479 19.5032 9.29484Z" fill="white"/>
<path d="M10.6258 5.21509C10.4036 5.01055 10.1304 4.90624 9.85714 4.90624C9.58392 4.90624 9.3107 5.00917 9.08729 5.21509L3.01585 10.7677C2.73412 11.0251 2.57143 11.4084 2.57143 11.8162V18.4525C2.57143 19.2003 3.11543 19.8071 3.7857 19.8071H7.42856V13.034H12.2857V19.8072H15.9286C16.5977 19.8072 17.1429 19.2003 17.1429 18.4526V11.8162C17.1429 11.4071 16.9789 11.0251 16.6972 10.7691L10.6258 5.21509Z" fill="white"/>
</svg>
