<svg width="16" height="20" viewBox="0 0 16 20" fill="none" xmlns="http://www.w3.org/2000/svg">
<path fill-rule="evenodd" clip-rule="evenodd" d="M0 0.363403V16.6455C0 18.4438 1.34192 19.9018 2.997 19.9018C4.65208 19.9018 5.99422 18.4438 5.99422 16.6455V13.3889H10.4898V0.363403H0ZM1.49861 1.99168H5.99422V3.61972H1.49861V1.99168ZM1.49861 13.3889H4.49561V11.7609H1.49861V13.3889ZM7.49261 10.1326H1.49861V8.50432H7.49261V10.1326ZM1.49861 6.87628H8.99122V5.248H1.49861V6.87628Z" fill="white"/>
<path d="M7.49261 15.0172V16.6455C7.49261 17.8967 7.05363 19.0367 6.33793 19.9018H12.7376C14.3927 19.9018 15.7346 18.4438 15.7346 16.6455V15.0172H7.49261Z" fill="white"/>
</svg>
