<svg width="22" height="20" viewBox="0 0 22 20" fill="none" xmlns="http://www.w3.org/2000/svg">
<path fill-rule="evenodd" clip-rule="evenodd" d="M8.52177 19.733L1.59346 12.1934C1.34166 11.9194 1.34166 11.4709 1.59346 11.1969L11.4964 0.420258C10.4279 0.420258 8.93563 1.09291 8.1801 1.9151L0.56662 10.2003C-0.188873 11.0225 -0.188873 12.3679 0.56662 13.19L6.23742 19.3611C6.85308 20.0312 7.78792 20.1549 8.52177 19.733ZM19.9145 0.420258H15.3817C14.3132 0.420258 12.8209 1.09291 12.0654 1.9151L4.4519 10.2003C3.69641 11.0225 3.69641 12.3679 4.4519 13.19L10.1227 19.3611C10.8782 20.1833 12.1145 20.1833 12.8701 19.3611L20.4834 11.076C21.239 10.2538 21.8571 8.62979 21.8571 7.46706V2.53431C21.8571 1.37158 20.983 0.420258 19.9145 0.420258ZM17.3243 7.46706C16.2514 7.46706 15.3817 6.5206 15.3817 5.35301C15.3817 4.18547 16.2514 3.23896 17.3243 3.23896C18.3972 3.23896 19.2669 4.18547 19.2669 5.35301C19.2669 6.5206 18.3972 7.46706 17.3243 7.46706Z" fill="white"/>
</svg>
